<svg width="187" height="191" viewBox="0 0 187 191" fill="none" xmlns="http://www.w3.org/2000/svg">
<path d="M186.441 43.1092C186.417 43.0207 186.368 42.9434 186.336 42.8579C186.278 42.7001 186.228 42.5403 186.144 42.3956C186.087 42.2981 186.006 42.2187 185.939 42.1292C185.851 42.0117 185.777 41.886 185.672 41.7825C185.586 41.6961 185.476 41.6338 185.379 41.5584C185.269 41.4729 185.171 41.3754 185.049 41.3051C185.049 41.3051 185.048 41.3051 185.047 41.3041C185.046 41.3041 185.046 41.3031 185.045 41.3021L149.082 20.6742C148.157 20.1435 147.017 20.1435 146.092 20.6742L110.13 41.3001C110.129 41.3001 110.129 41.3011 110.128 41.3021C110.127 41.3021 110.126 41.3021 110.126 41.3031C110.004 41.3734 109.905 41.4709 109.797 41.5564C109.7 41.6317 109.59 41.6951 109.504 41.7805C109.4 41.884 109.324 42.0096 109.237 42.1272C109.17 42.2167 109.088 42.2971 109.032 42.3936C108.948 42.5383 108.898 42.6991 108.839 42.8559C108.808 42.9413 108.758 43.0187 108.734 43.1072C108.667 43.3574 108.63 43.6198 108.63 43.8871V83.0635L78.662 100.253V23.612C78.662 23.3456 78.6257 23.0833 78.5581 22.832C78.5339 22.7436 78.4845 22.6662 78.4532 22.5808C78.3947 22.423 78.3442 22.2632 78.2605 22.1184C78.204 22.0209 78.1223 21.9415 78.0557 21.8521C77.9679 21.7345 77.8933 21.6089 77.7884 21.5053C77.7026 21.4189 77.5927 21.3566 77.4958 21.2812C77.3858 21.1958 77.288 21.0983 77.1659 21.0279C77.1659 21.0279 77.1649 21.0279 77.1639 21.0269C77.1629 21.0269 77.1629 21.0259 77.1619 21.0249L41.2001 0.398005C40.275 -0.132668 39.135 -0.132668 38.2099 0.398005L2.24818 21.0249C2.24717 21.0249 2.24717 21.0259 2.24616 21.0269C2.24515 21.0269 2.24414 21.0269 2.24414 21.0279C2.12208 21.0983 2.0232 21.1958 1.91425 21.2812C1.8174 21.3566 1.70744 21.4199 1.62169 21.5053C1.51778 21.6089 1.44212 21.7345 1.35435 21.8521C1.28777 21.9415 1.20605 22.0219 1.14956 22.1184C1.06582 22.2632 1.01539 22.424 0.956875 22.5808C0.925602 22.6662 0.876165 22.7436 0.851953 22.832C0.784362 23.0823 0.748047 23.3446 0.748047 23.612V146.32C0.748047 147.389 1.32106 148.375 2.25019 148.908L74.1727 190.161C74.3301 190.251 74.4996 190.305 74.667 190.364C74.7457 190.392 74.8184 190.438 74.8991 190.46C75.1503 190.526 75.4095 190.56 75.6678 190.56C75.9261 190.56 76.1843 190.527 76.4365 190.46C76.5061 190.441 76.5697 190.4 76.6383 190.376C76.8159 190.315 76.9954 190.257 77.1619 190.161L149.084 148.908C150.014 148.376 150.587 147.389 150.587 146.32V107.144L185.046 87.3782C185.975 86.8455 186.548 85.8586 186.548 84.7902V43.8871C186.545 43.6218 186.51 43.3594 186.441 43.1092ZM75.6587 142.887L45.7489 126.023L77.1599 108.006C77.1599 108.006 77.1599 108.006 77.1609 108.005L111.627 88.2365L141.563 105.407L119.598 117.898L75.6587 142.887ZM144.591 66.2417V100.254L132.006 93.0357L114.623 83.0655V49.0531L127.208 56.2715L144.591 66.2417ZM147.587 26.7076L177.543 43.8891L147.587 61.0707L117.632 43.8891L147.587 26.7076ZM55.2854 113.662L42.7002 120.88V45.9646L60.0834 35.9943L72.6686 28.776V103.69L55.2854 113.662ZM39.703 6.4304L69.6582 23.612L39.703 40.7935L9.74781 23.612L39.703 6.4304ZM6.73847 28.777L19.3236 35.9953L36.7068 45.9656V126.045C36.7068 126.047 36.7078 126.048 36.7078 126.05C36.7078 126.052 36.7068 126.054 36.7068 126.056C36.7068 126.171 36.7391 126.278 36.7522 126.391C36.7693 126.537 36.7734 126.686 36.8117 126.827C36.8127 126.829 36.8127 126.832 36.8137 126.834C36.846 126.952 36.9086 127.057 36.955 127.17C37.0064 127.294 37.0437 127.426 37.1123 127.543C37.1133 127.546 37.1143 127.549 37.1164 127.552C37.1779 127.657 37.2667 127.744 37.3403 127.841C37.422 127.947 37.4906 128.062 37.5865 128.157C37.5895 128.16 37.5915 128.164 37.5946 128.167C37.6793 128.25 37.7862 128.309 37.8811 128.383C37.988 128.466 38.0848 128.562 38.2039 128.631C38.2079 128.633 38.213 128.634 38.217 128.636C38.221 128.638 38.2241 128.642 38.2281 128.644L72.6686 148.063V182.411L6.73948 144.595V28.777H6.73847ZM144.591 144.595L78.662 182.411V148.056L127.488 120.288L144.591 110.562V144.595ZM180.552 83.0655L150.584 100.254V66.2417L167.967 56.2715L180.552 49.0531V83.0655Z" fill="#FF2D20"/>
</svg>
